HIERARCHY
ROOT Hips
{
	OFFSET -0.001795 -0.223333 0.028219
	CHANNELS 6 Xposition Yposition Zposition Zrotation Yrotation Xrotation 
	JOINT LeftUpLeg
	{
		OFFSET 0.069520 -0.091406 -0.006815
		CHANNELS 3 Zrotation Yrotation Xrotation
		JOINT LeftLeg
		{
			OFFSET 0.034277 -0.375199 -0.004496
			CHANNELS 3 Zrotation Yrotation Xrotation
			JOINT LeftFoot
			{
				OFFSET -0.013596 -0.397961 -0.043693
				CHANNELS 3 Zrotation Yrotation Xrotation
				JOINT LeftToe
				{
					OFFSET 0.026358 -0.055791 0.119288
					CHANNELS 3 Zrotation Yrotation Xrotation
					End Site
					{
						OFFSET 0.000000 0.000000 0.000000
					}
				}
			}
		}
	}
	JOINT RightUpLeg
	{
		OFFSET -0.067670 -0.090522 -0.004320
		CHANNELS 3 Zrotation Yrotation Xrotation
		JOINT RightLeg
		{
			OFFSET -0.038290 -0.382569 -0.008850
			CHANNELS 3 Zrotation Yrotation Xrotation
			JOINT RightFoot
			{
				OFFSET 0.015774 -0.398415 -0.042312
				CHANNELS 3 Zrotation Yrotation Xrotation
				JOINT RightToe
				{
					OFFSET -0.025372 -0.048144 0.123348
					CHANNELS 3 Zrotation Yrotation Xrotation
					End Site
					{
						OFFSET 0.000000 0.000000 0.000000
					}
				}
			}
		}
	}
	JOINT Spine
	{
		OFFSET -0.002533 0.108963 -0.026696
		CHANNELS 3 Zrotation Yrotation Xrotation
		JOINT Spine1
		{
			OFFSET 0.005487 0.135180 0.001092
			CHANNELS 3 Zrotation Yrotation Xrotation
			JOINT Spine2
			{
				OFFSET 0.001457 0.052922 0.025425
				CHANNELS 3 Zrotation Yrotation Xrotation
				JOINT Neck
				{
					OFFSET -0.002778 0.213870 -0.042857
					CHANNELS 3 Zrotation Yrotation Xrotation
					JOINT Head
					{
						OFFSET 0.005152 0.064970 0.051349
						CHANNELS 3 Zrotation Yrotation Xrotation
						End Site
						{
							OFFSET 0.000000 0.000000 0.000000
						}
					}
				}
				JOINT LeftShoulder
				{
					OFFSET 0.078845 0.121749 -0.034090
					CHANNELS 3 Zrotation Yrotation Xrotation
					JOINT LeftArm
					{
						OFFSET 0.090977 0.030469 -0.008868
						CHANNELS 3 Zrotation Yrotation Xrotation
						JOINT LeftForeArm
						{
							OFFSET 0.259612 -0.012772 -0.027456
							CHANNELS 3 Zrotation Yrotation Xrotation
							JOINT LeftHand
							{
								OFFSET 0.249234 0.008986 -0.001171
								CHANNELS 3 Zrotation Yrotation Xrotation
								End Site
								{
									OFFSET 0.000000 0.000000 0.000000
								}
							}
						}
					}
				}
				JOINT RightShoulder
				{
					OFFSET -0.081759 0.118833 -0.038615
					CHANNELS 3 Zrotation Yrotation Xrotation
					JOINT RightArm
					{
						OFFSET -0.096012 0.032551 -0.009143
						CHANNELS 3 Zrotation Yrotation Xrotation
						JOINT RightForeArm
						{
							OFFSET -0.253742 -0.013329 -0.021401
							CHANNELS 3 Zrotation Yrotation Xrotation
							JOINT RightHand
							{
								OFFSET -0.255298 0.007772 -0.005559
								CHANNELS 3 Zrotation Yrotation Xrotation
								End Site
								{
									OFFSET 0.000000 0.000000 0.000000
								}
							}
						}
					}
				}
			}
		}
	}
}
MOTION
Frames: 7
Frame Time: 0.050000
-0.018339 0.955005 0.101009 -0.866297 -2.391780 1.939317 2.842819 0.233987 3.898036 0.884877 -0.040721 -1.443102 -0.507296 2.479554 8.916099 0.000000 0.000000 0.000000 -2.944485 0.257798 -2.212139 0.028603 0.079360 2.020098 2.901492 -3.537890 21.382381 0.000000 0.000000 0.000000 -3.156347 0.152538 -6.415649 5.151201 -1.000893 -19.558283 -0.094933 4.289962 26.755448 4.259420 0.415723 -34.011162 0.000000 0.000000 0.000000 -26.098538 -7.295516 1.881709 -29.297599 -28.840516 1.383225 69.692815 -66.073869 -44.943272 0.000000 0.000000 0.000000 6.121938 22.705608 9.172096 20.453564 39.400582 2.115185 -69.675722 19.081212 -9.662267 0.000000 0.000000 0.000000 
-0.024322 0.955495 0.106688 -0.658349 -1.800839 2.189854 2.807916 0.188564 3.324024 1.362868 -0.131743 -0.461476 -0.754307 2.169548 9.110123 0.000000 0.000000 0.000000 -2.921890 0.208140 -1.560222 0.350083 0.009117 1.196337 2.634831 -3.838999 21.383011 0.000000 0.000000 0.000000 -2.801454 0.160124 -6.219381 4.399572 -0.772897 -19.634282 0.155499 5.667883 26.617445 4.211528 0.748775 -34.489415 0.000000 0.000000 0.000000 -26.429555 -7.606150 1.373397 -30.716944 -27.522168 1.444459 64.463264 -68.700099 -43.306702 0.000000 0.000000 0.000000 5.851446 22.653058 9.286823 17.844058 39.371703 1.547070 -64.483210 15.767138 -6.571303 0.000000 0.000000 0.000000 
-0.029440 0.955500 0.111384 -0.299771 -1.070276 2.177002 2.727338 0.146860 2.754260 1.590767 -0.217006 0.855667 -1.060243 1.713340 9.132996 0.000000 0.000000 0.000000 -2.836225 0.158466 -0.966040 0.213877 0.012643 0.908715 2.220489 -4.271545 21.132623 0.000000 0.000000 0.000000 -2.798097 0.146629 -5.846417 4.042108 -0.646286 -19.804539 0.311491 6.977008 26.858333 4.760426 0.774188 -34.717929 0.000000 0.000000 0.000000 -26.768504 -7.654731 0.689519 -31.904295 -25.468674 1.261764 62.115173 -71.160663 -43.730955 0.000000 0.000000 0.000000 5.889857 22.724972 9.518489 15.185255 39.387647 0.956278 -59.911264 13.984462 -4.908038 0.000000 0.000000 0.000000 
-0.033822 0.956105 0.114984 0.023172 0.119640 2.354364 2.613852 0.104624 2.217391 2.003291 -0.294712 1.484260 -1.643307 0.917706 9.402360 0.000000 0.000000 0.000000 -2.899443 0.105967 -0.313619 0.431809 -0.041114 0.124493 1.670853 -4.966414 21.318844 0.000000 0.000000 0.000000 -2.919266 0.135491 -5.928123 3.411053 -0.461271 -19.461149 0.736799 7.625419 26.924928 4.481842 1.167989 -35.355014 0.000000 0.000000 0.000000 -27.094680 -7.459855 -0.040922 -32.630688 -24.176149 1.182536 59.784696 -73.206973 -43.727079 0.000000 0.000000 0.000000 5.292247 23.339995 9.761485 13.083350 39.048893 0.513608 -55.736229 11.643538 -3.293744 0.000000 0.000000 0.000000 
-0.037744 0.956068 0.117567 0.247918 1.409037 2.669015 2.613466 0.047492 1.523790 2.390475 -0.366375 1.993449 -2.230849 0.056618 9.473288 0.000000 0.000000 0.000000 -2.742875 0.073022 0.001746 0.445064 -0.062716 -0.415503 1.009308 -5.764071 21.334327 0.000000 0.000000 0.000000 -2.811166 0.128819 -5.687522 3.152307 -0.344889 -19.744170 1.026723 8.663077 27.426867 4.715420 1.375881 -35.815685 0.000000 0.000000 0.000000 -27.256223 -8.084841 -0.437709 -33.070791 -22.113236 0.911305 64.613898 -74.754704 -49.552811 0.000000 0.000000 0.000000 5.326967 23.813512 10.171981 10.700245 38.398372 -0.027796 -52.873777 10.139967 -2.318178 0.000000 0.000000 0.000000 
-0.040990 0.956436 0.119238 0.454362 2.936946 3.071452 2.957308 -0.029771 0.692725 2.210228 -0.361705 2.387280 -3.000394 -1.030362 9.679047 0.000000 0.000000 0.000000 -2.392027 0.044544 0.180450 0.143680 -0.051434 -0.944464 0.236222 -6.744577 21.572232 0.000000 0.000000 0.000000 -2.771070 0.121090 -5.597186 2.697555 -0.183531 -19.702049 1.292169 9.345918 27.616424 4.954840 1.533068 -36.017016 0.000000 0.000000 0.000000 -27.163013 -8.342259 -0.983801 -33.844907 -20.327892 0.716010 73.304415 -76.484369 -59.252240 0.000000 0.000000 0.000000 4.313095 24.735960 10.408001 8.402625 37.260871 -0.460592 -49.771032 7.704772 -1.084051 0.000000 0.000000 0.000000 
-0.043790 0.956487 0.120340 0.769774 4.787782 3.590830 3.001826 -0.107302 -0.308864 -0.188746 0.040022 -0.644609 0.075376 6.856554 16.776538 0.000000 0.000000 0.000000 -2.272030 0.052790 -0.019206 0.083541 -0.047131 -0.996989 -0.750331 -7.971545 21.740800 0.000000 0.000000 0.000000 -2.802108 0.108820 -5.395715 2.292507 -0.013501 -20.019379 1.440224 9.922290 27.990586 4.734028 1.938274 -36.547710 0.000000 0.000000 0.000000 -27.024570 -8.950363 -1.359299 -34.351988 -18.282584 0.434881 88.734605 -77.975555 -75.793020 0.000000 0.000000 0.000000 2.966224 25.820826 10.563095 5.686277 35.599129 -0.908143 -46.641703 5.204966 -0.002688 0.000000 0.000000 0.000000 
